<?xml version="1.0" encoding="UTF-8"?>
<svg xmlns="http://www.w3.org/2000/svg" viewBox="0 0 517 517">
  <defs>
    <style>
      .dv, .dw, .dx, .dy, .e`, .ea, .eb, .ec, .ed, .ee, .ef, .eg, .eh, .ei, .ej {
        stroke-miterlimit: 10;
      }

      .dv, .dw, .dx, .dy, .e`, .ea, .eb, .ec, .ee, .ef, .eg, .ei, .ej {
        stroke: #231f20;
      }

      .dv, .dy, .e`, .ed, .eh {
        fill: none;
      }

      .dw {
        fill: #5095ac;
      }

      .dx {
        fill: #53ba69;
      }

      .dy {
        stroke-dasharray: 0 0 61.26349 61.26349;
        stroke-width: 7px;
      }

      .ek {
        fill: #6d6e71;
      }

      .ek, .el, .em, .en {
        opacity: .49;
      }

      .eo {
        fill: #be1e2d;
      }

      .e`, .ed {
        stroke-width: 3px;
      }

      .ep {
        fill: #009444;
      }

      .el {
        fill: #a7a9ac;
      }

      .em {
        fill: #808285;
      }

      .eq {
        fill: #d7df23;
      }

      .ea {
        fill: #5e5fa6;
      }

      .en {
        fill: #939598;
      }

      .eb {
        fill: #a0b853;
      }

      .ec {
        fill: #db539e;
      }

      .ed, .eh {
        stroke: #493219;
      }

      .ee {
        fill: #50aaa1;
      }

      .ef {
        fill: #4f75af;
      }

      .er {
        fill: #2bb673;
      }

      .eg {
        fill: #7e5da7;
      }

      .es {
        fill: #00a651;
      }

      .ei {
        fill: #d15175;
      }

      .ej {
        fill: #a860a6;
      }
    </style>
  </defs>
  <g id="a" data-name="countries-inert">
    <polygon class="er" points="10.54587 226.36886 22.2234 230.32979 55.92553 225.2234 65.11702 230.32979 65.11702 236.45745 80.43617 236.45745 93.71277 226.24468 112.09574 218.07447 124.35106 202.75532 124.35106 189.47872 114.1383 181.30851 102.90426 181.30851 93.71277 162.92553 103.92553 162.92553 103.92553 138.41489 115.15957 124.11702 115.15957 116.96809 124.35106 106.75532 124.35106 92.45745 132.52128 83.26596 132.52128 67.94681 139.67021 50.3154 133.94887 41.68683 118.13533 51.59641 103.01564 62.72503 84.68014 78.81726 70.60477 93.58947 52.21709 117.22677 38.8171 139.07214 32.40269 151.68967 24.38162 170.62853 18.60795 187.90448 13.64927 207.77794 10.54587 226.36886"/>
    <polygon class="ep" points="133.94887 41.68683 139.67021 50.3154 132.52128 67.94681 132.52128 83.26596 124.35106 92.45745 124.35106 106.75532 124.35106 116.96809 134.56383 116.96809 152.94681 108.79787 159.07447 90.41489 182.56383 74.07447 202.98936 74.07447 202.98936 68.96809 212.18085 59.64174 232.60638 59.64174 240.7766 68.96809 258.5 68.96809 273.45745 56.96089 312.26596 56.96089 337.79787 50.3154 359.24468 50.3154 378.90426 63.60638 401.11702 63.60638 403.29735 54.67796 378.90426 38.32979 348.24961 25.09566 327.279 18.0811 305.64907 12.93991 283.92128 9.77685 263.82421 8.55742 235.1921 9.57408 212.27088 12.76789 189.48952 18.14657 169.00968 24.99533 150.51293 32.96223 133.94887 41.68683"/>
    <polygon class="es" points="10.54587 226.36886 22.2234 230.32979 55.92553 225.2234 65.11702 230.32979 65.11702 236.45745 58.98936 246.40489 45.71277 263.01064 45.71277 269.5 54.90426 276.28723 64.09574 276.28723 60.26596 283.43617 67.92553 281.90426 65.11702 292.62766 69.20213 303.8617 81.71277 308.71277 88.97623 312.84297 82.47872 324.03191 89.62766 328.37234 86.56383 350.84043 104.94681 350.84043 121.28723 330.41489 143.75532 327.35106 146.81915 308.96809 161.11702 301.81915 156.01064 320.20213 149.88298 334.5 150.90426 350.84043 158.05319 339.60638 159.07447 350.84043 163.15957 370.24468 169.28723 361.05319 176.43617 360.03191 182.56383 375.35106 179.5 380.45745 175.41489 394.75532 175.41489 399.8617 185.62766 418.24468 179.5 426.41489 178.47872 434.58511 189.71277 434.58511 184.35106 453.47872 165.20213 464.20213 177.45745 479.52128 171.47084 492.93051 145.11969 481.36948 118.35007 465.54896 91.15841 444.23056 71.1383 424.01749 56.38013 405.66073 40.30971 380.62526 26.10983 350.84043 17.05005 323.55378 12.40723 302.7678 8.5 274.24468 8.5 248.57791 10.54587 226.36886"/>
    <polygon class="eq" points="508.5 261.01064 500.69149 269.5 488.94681 269.5 481.28723 274.24468 470.05319 279.60638 456.26596 280.71277 444.52128 274.24468 446.56383 264.54255 440.94681 255.8617 433.79787 252.28723 417.58511 258.5 407.75532 252.28723 403.29735 245.90426 396.52128 241.30851 396.52128 253.56383 390.39362 263.52128 383.5 269.5 378.90426 279.60638 384.09574 286.15957 387.32979 293.39362 387.32979 301.81915 396.52128 306.41489 404.18085 317.1383 417.96809 317.1383 430.98936 334.75532 427.7469 347.01064 420.9426 353.90426 427.7469 361.56383 420.9426 371.52128 420.9426 381.47872 427.7469 389.1383 427.7469 396.79787 420.9426 407.52128 420.9426 420.54255 414.1383 428.20213 425.11702 446.84043 443.70213 426.43 465.10523 399.29831 482.21885 370.19564 493.46796 344.07447 500.60621 321.06705 505.91719 294.5382 508.01047 274.24468 508.5 261.01064"/>
    <polygon class="eo" points="508.5 261.01064 500.69149 269.5 488.94681 269.5 481.28723 274.24468 470.05319 279.60638 456.26596 280.71277 444.52128 274.24468 446.56383 264.54255 440.94681 255.8617 433.79787 252.28723 417.58511 258.5 407.75532 252.28723 403.29735 245.90426 396.52128 241.30851 404.94681 236.71277 414.1383 225.98936 417.20213 214.5 425.62766 204.54255 437.11702 200.71277 450.90426 200.71277 456.26596 190.75532 456.26596 180.03191 447.84043 172.37234 447.84043 163.18085 450.90426 152.45745 442.47872 141.73404 443.24468 131.7766 428.69149 120.28723 430.98936 113.39362 426.39362 104.96809 423.32979 95.01064 423.32979 83.52128 412.60638 77.39362 401.11702 63.60638 403.29735 54.67796 417.58511 65.63904 432.72736 79.2136 448.2674 95.7472 460.40234 111.04371 476.44153 135.93564 485.34192 153.27862 495.09968 177.54936 502.64542 204.47643 507.91504 241.30851 508.5 261.01064"/>
  </g>
  <g id="b" data-name="borders-inert">
    <polyline class="ed" points="407.85018 424.39383 414.1383 428.20213 420.9426 420.54255 420.9426 407.52128 427.7469 396.79787 427.7469 389.1383 420.9426 381.47872 420.9426 371.52128 427.7469 361.56383 420.9426 353.90426 427.7469 347.01064 430.98936 334.75532 417.96809 317.1383 404.18085 317.1383 396.52128 306.41489 387.32979 301.81915 387.32979 293.39362 384.09574 286.15957 378.90426 279.60638 383.5 269.5 390.39362 263.52128 396.52128 253.56383 396.52128 241.30851 404.94681 236.71277 414.1383 225.98936 417.20213 214.5 425.62766 204.54255 437.11702 200.71277 450.90426 200.71277 456.26596 190.75532 456.26596 180.03191 447.84043 172.37234 447.84043 163.18085 450.90426 152.45745 442.47872 141.73404 443.24468 131.7766 428.69149 120.28723 430.98936 113.39362 426.39362 104.96809 423.32979 95.01064 423.32979 83.52128 412.60638 77.39362 401.11702 63.60638 401.11702 63.60638"/>
    <path class="ed" d="M414.1383,428.20213l-18.12766-10.97872-11.23404-9.19149-5.87234-14.29787-14.55319,5.10638-14.29787-2.04255v-9.19149l-1.02128-14.29787-15.31915-4.08511-7.14894,11.23404,.07204,11.72985-4.08511,15.31915,11.162,15.84462-8.17021,13.2766-17.3617-2.04255-16.34043-6.12766s-12.25532,9.19149-16.34043,14.03693-7.14894,0-7.14894,0l-14.29787-14.03693-23.48936-2.04255-17.3617,20.42553-16.34043-4.34605-7.14894-7.90927h-11.23404l1.02128-8.17021,6.12766-8.17021-10.21277-18.38298v-5.10638l4.08511-14.29787,3.06383-5.10638-6.12766-15.31915-7.14894,1.02128-6.12766,9.19149-4.08511-19.40426-1.02128-11.23404-7.14894,11.23404-1.02128-16.34043,6.12766-14.29787,5.10638-18.38298-14.29787,7.14894-3.06383,18.38298-22.46809,3.06383-16.34043,20.42553h-18.38298l3.06383-22.46809-7.14894-4.34043,6.49751-11.18894-7.26347-4.13021-12.51064-4.85106-4.08511-11.23404,2.80851-10.7234-7.65957,1.53191,3.82979-7.14894h-9.19149l-9.19149-6.78723v-6.48936l13.2766-16.60575,6.12766-9.94744h15.31915l13.2766-10.21277,18.38298-8.17021,12.25532-15.31915v-13.2766l-10.21277-8.17021h-11.23404l-9.19149-18.38298h10.21277v-24.51064l11.23404-14.29787v-7.14894l9.19149-10.21277v10.21277h10.21277l18.38298-8.17021,6.12766-18.38298,23.48936-16.34043h20.42553v-5.10638l9.19149-9.32634h20.42553l8.17021,9.32634h17.7234l14.95745-12.00719h38.80851l25.53191-6.64549h21.44681l19.65957,13.29098h22.21277"/>
    <polyline class="eh" points="7.16887 225.2234 22.2234 230.32979 38.56383 227.7766 55.92553 225.2234 65.11702 230.32979 65.11702 236.45745"/>
    <polyline class="eh" points="124.35106 106.75532 124.35106 92.45745 132.52128 83.26596 132.52128 67.94681 139.67021 50.3154 132.01064 38.7637"/>
    <polyline class="dv" points="189.71277 434.58511 184.35106 453.47872 165.20213 464.20213 177.45745 479.52128 171.47084 492.93051"/>
    <line class="eh" x1="403.29735" y1="54.67796" x2="401.11702" y2="63.60638"/>
    <line class="eh" x1="425.11702" y1="446.84043" x2="414.1383" y2="428.20213"/>
    <polyline class="dv" points="396.52128 241.30851 403.29735 245.90426 407.75532 252.28723 417.58511 258.5 433.79787 252.28723 440.94681 255.8617 446.56383 264.54255 444.52128 274.24468 456.26596 280.71277 470.05319 279.60638 481.28723 274.24468 488.94681 269.5 500.69149 269.5 508.5 261.01064"/>
  </g>
  <g id="c" data-name="outline-inert">
    <circle class="e`" cx="258.5" cy="258.5" r="250"/>
    <circle class="e`" cx="258.5" cy="258.5" r="257"/>
    <path class="dy" d="M512,258.5c0-140.00418-113.49582-253.5-253.5-253.5-336.26281,13.35246-336.16698,493.69834,.00215,507.00044,140.00203-.00044,253.49785-113.49623,253.49785-253.50044h0Z"/>
  </g>
  <g id="d" data-name="regions">
    <polygon id="e" data-name="Alpha" class="el" points="161.11702 301.81915 146.81915 308.96809 143.75532 327.35106 121.28723 330.41489 104.94681 350.84043 86.56383 350.84043 89.62766 328.37234 82.47872 324.03191 88.97623 312.84297 69.20213 303.8617 65.11702 292.62766 67.92553 281.90426 60.26596 283.43617 64.09574 276.28723 54.90426 276.28723 45.71277 269.5 45.71277 263.01064 58.98936 246.40489 65.11702 236.45745 80.43617 236.45745 93.71277 226.24468 112.09574 218.07447 132.01064 218.07447 146.81915 230.84043 165.20213 225.2234 169.79787 240.54255 189.71277 245.90426 182.05319 261.98936 195.84043 274.24468 177.45745 295.69149 161.11702 301.81915"/>
    <polygon id="f" data-name="Bravo" class="en" points="195.84043 274.24468 177.45745 295.69149 161.11702 301.81915 156.01064 320.20213 149.88298 334.5 150.90426 350.84043 158.05319 339.60638 159.07447 350.84043 163.15957 370.24468 169.28723 361.05319 176.43617 360.03191 182.56383 375.35106 179.5 380.45745 175.41489 394.75532 175.41489 399.8617 185.62766 418.24468 179.5 426.41489 178.47872 434.58511 189.71277 434.58511 196.8617 442.49437 213.20213 446.84043 230.56383 426.41489 254.05319 428.45745 268.35106 442.49437 271.41489 444.61896 275.5 442.49437 291.84043 428.45745 291.84043 397.30851 271.41489 375.35106 283.67021 354.41489 280.60638 339.60638 270.90426 329.39362 273.96809 313.56383 265.79787 292.62766 234.64894 291.09574 213.20213 274.24468 195.84043 274.24468"/>
    <polygon id="g" data-name="Charlie" class="em" points="308.18085 434.58511 291.84043 428.45745 291.84043 397.30851 271.41489 375.35106 283.67021 354.41489 280.60638 339.60638 299.24468 322.5 312.26596 302.58511 329.88298 302.58511 357.45745 294.92553 378.90426 279.60638 384.09574 286.15957 387.32979 293.39362 387.32979 301.81915 396.52128 306.41489 404.18085 317.1383 417.96809 317.1383 430.98936 334.75532 427.7469 347.01064 420.9426 353.90426 427.7469 361.56383 420.9426 371.52128 420.9426 381.47872 427.7469 389.1383 427.7469 396.79787 420.9426 407.52128 420.9426 420.54255 414.1383 428.20213 396.01064 417.2234 384.7766 408.03191 378.90426 393.73404 364.35106 398.84043 350.05319 396.79787 349.03191 373.30851 333.71277 369.2234 326.56383 380.45745 326.63587 392.1873 322.55076 407.50645 333.71277 423.35106 325.54255 436.62766 308.18085 434.58511"/>
    <polygon id="h" data-name="Delta" class="ek" points="280.60638 339.60638 270.90426 329.39362 273.96809 313.56383 265.79787 292.62766 234.64894 291.09574 213.20213 274.24468 229.92553 248.57791 244.8617 250.07447 254.73404 232.71277 274.1383 228.28723 304.43617 228.28723 309.88298 240.88298 322.1383 237.1383 336.43617 240.88298 351.20213 221.81915 369.11702 225.90426 374.2234 233.39362 388.18085 235.7766 396.52128 241.30851 396.52128 253.56383 390.39362 263.52128 383.5 269.5 378.90426 279.60638 357.45745 294.92553 329.88298 302.58511 312.26596 302.58511 299.24468 322.5 280.60638 339.60638"/>
    <polygon id="i" data-name="Echo" class="em" points="213.20213 274.24468 195.84043 274.24468 182.05319 261.98936 189.71277 245.90426 169.79787 240.54255 165.20213 225.2234 177.45745 201.2234 177.45745 187.94681 195.84043 175.69149 209.62766 175.69149 220.8617 164.96809 258.5 167.01064 273.96809 164.45745 289.28723 157.81915 304.8617 160.88298 310.73404 182.32979 329.62766 182.32979 339.84043 197.1383 342.39362 207.8617 354.64894 212.96809 351.20213 221.81915 336.43617 240.88298 322.1383 237.1383 309.88298 240.88298 304.43617 228.28723 274.1383 228.28723 254.73404 232.71277 244.8617 250.07447 229.92553 248.57791 213.20213 274.24468"/>
    <polygon id="j" data-name="Foxtrot" class="en" points="396.52128 241.30851 388.18085 235.7766 374.2234 233.39362 369.11702 225.90426 351.20213 221.81915 354.64894 212.96809 342.39362 207.8617 339.84043 197.1383 329.62766 182.32979 347.5 164.45745 363.07447 164.45745 367.41489 153.2234 378.90426 138.92553 401.11702 138.92553 409.28723 138.92553 417.58511 127.18085 428.69149 120.28723 443.24468 131.7766 442.47872 141.73404 450.90426 152.45745 447.84043 163.18085 447.84043 172.37234 456.26596 180.03191 456.26596 190.75532 450.90426 200.71277 437.11702 200.71277 425.62766 204.54255 417.20213 214.5 414.1383 225.98936 404.94681 236.71277 396.52128 241.30851"/>
    <polygon id="k" data-name="Golf" class="en" points="159.07447 90.41489 177.45745 106.75532 184.35106 127.94681 189.71277 134.07447 205.79787 140.96809 220.8617 164.96809 209.62766 175.69149 195.84043 175.69149 177.45745 187.94681 177.45745 201.2234 165.20213 225.2234 146.81915 230.84043 132.01064 218.07447 112.09574 218.07447 124.35106 202.75532 124.35106 189.47872 114.1383 181.30851 102.90426 181.30851 93.71277 162.92553 103.92553 162.92553 103.92553 138.41489 115.15957 124.11702 115.15957 116.96809 124.35106 106.75532 124.35106 116.96809 134.56383 116.96809 152.94681 108.79787 159.07447 90.41489"/>
    <polygon id="l" data-name="Hotel" class="el" points="310.73404 182.32979 304.8617 160.88298 289.28723 157.81915 304.8617 134.32979 322.47872 134.32979 326.05319 126.15957 323.5 114.41489 329.62766 102.67021 329.62766 86.32979 338.30851 80.71277 354.64894 87.8617 373.54255 77.64894 378.90426 63.60638 401.11702 63.60638 412.60638 77.39362 423.32979 83.52128 423.32979 95.01064 426.39362 104.96809 430.98936 113.39362 428.69149 120.28723 417.58511 127.18085 409.28723 138.92553 378.90426 138.92553 367.41489 153.2234 363.07447 164.45745 347.5 164.45745 329.62766 182.32979 310.73404 182.32979"/>
    <polygon id="m" data-name="India" class="en" points="304.8617 134.32979 300.32037 141.179 287.24468 125.64894 271.41489 116.15349 276.26596 101.1383 264.7766 90.41489 258.5 68.96809 273.45745 56.96089 312.26596 56.96089 337.79787 50.3154 359.24468 50.3154 378.90426 63.60638 373.54255 77.64894 354.64894 87.8617 338.30851 80.71277 329.62766 86.32979 329.62766 102.67021 323.5 114.41489 326.05319 126.15957 322.47872 134.32979 304.8617 134.32979"/>
    <polygon id="n" data-name="Juliet" class="ek" points="220.8617 164.96809 205.79787 140.96809 189.71277 134.07447 184.35106 127.94681 177.45745 106.75532 159.07447 90.41489 182.56383 74.07447 202.98936 74.07447 202.98936 68.96809 212.18085 59.64174 232.60638 59.64174 240.7766 68.96809 258.5 68.96809 264.7766 90.41489 276.26596 101.1383 271.41489 116.15349 287.24468 125.64894 300.32037 141.179 289.28723 157.81915 273.96809 164.45745 258.5 167.01064 220.8617 164.96809"/>
  </g>
  <g id="o" data-name="subregions">
    <g id="p" data-name="s_alpha">
      <polygon id="q" data-name="a0" class="ei" points="88.97623 312.84297 96.52128 312.84297 103.41489 319.18085 111.32979 320.96809 121.28723 330.41489 104.94681 350.84043 86.56383 350.84043 89.62766 328.37234 82.47872 324.03191 88.97623 312.84297"/>
      <polygon id="r" data-name="a1" class="ei" points="96.52128 312.84297 105.45745 306.41489 114.1383 309.62893 118.2234 302.58511 131.24468 297.98936 146.81915 308.96809 143.75532 327.35106 121.28723 330.41489 111.32979 320.96809 103.41489 319.18085 96.52128 312.84297"/>
      <polygon id="s" data-name="a2" class="ei" points="131.24468 297.98936 132.26596 289.05319 123.58511 283.43617 111.84043 283.43617 110.05319 275.52128 99.10638 275.52128 94.73404 286.75532 89.37234 297.98936 96.52128 312.84297 105.45745 306.41489 114.1383 309.62893 118.2234 302.58511 131.24468 297.98936"/>
      <polygon id="t" data-name="a3" class="ei" points="99.10638 275.52128 67.92553 281.90426 65.11702 292.62766 69.20213 303.8617 88.97623 312.84297 96.52128 312.84297 89.37234 297.98936 94.73404 286.75532 99.10638 275.52128"/>
      <polygon id="u" data-name="a4" class="ei" points="67.92553 281.90426 60.26596 283.43617 64.09574 276.28723 54.90426 276.28723 45.71277 269.5 45.71277 263.01064 58.98936 246.40489 75.10804 248.57791 80.43617 256.37234 95.24468 260.20213 99.10638 275.52128 67.92553 281.90426"/>
      <polygon id="v" data-name="a5" class="ei" points="99.10638 275.52128 110.81915 261.73404 110.81915 244.88298 103.41489 232.37234 104.96277 221.24468 93.71277 226.24468 80.43617 236.45745 65.11702 236.45745 58.98936 246.40489 75.10804 248.57791 80.43617 256.37234 95.24468 260.20213 99.10638 275.52128"/>
      <polygon id="w" data-name="a6" class="ei" points="110.81915 244.88298 131.5 249.73404 139.67021 261.98936 149.88298 260.45745 146.81915 275.52128 136.60638 280.71277 132.26596 289.05319 123.58511 283.43617 111.84043 283.43617 110.05319 275.52128 99.10638 275.52128 110.81915 261.73404 110.81915 244.88298"/>
      <polygon id="x" data-name="a7" class="ei" points="149.88298 260.45745 151.15957 246.40489 165.20213 225.2234 146.81915 230.84043 132.01064 218.07447 112.09574 218.07447 104.96277 221.24468 103.41489 232.37234 110.81915 244.88298 131.5 249.73404 139.67021 261.98936 149.88298 260.45745"/>
      <polygon id="y" data-name="a8" class="ei" points="146.81915 275.52128 159.07447 267.8617 174.1383 274.24468 195.84043 274.24468 182.05319 261.98936 189.71277 245.90426 169.79787 240.54255 165.20213 225.2234 151.15957 246.40489 149.88298 260.45745 146.81915 275.52128"/>
      <polygon id="a`" data-name="a9" class="ei" points="146.81915 308.96809 161.11702 301.81915 177.45745 295.69149 195.84043 274.24468 174.1383 274.24468 159.07447 267.8617 146.81915 275.52128 136.60638 280.71277 132.26596 289.05319 131.24468 297.98936 146.81915 308.96809"/>
    </g>
    <g id="aa" data-name="s_bravo">
      <polygon id="ab" data-name="b0" class="ec" points="195.84043 274.24468 177.45745 295.69149 161.11702 301.81915 188.01064 308.96809 195.84043 306.24468 211.32979 307.60638 217.62766 300.45745 234.64894 291.09574 213.20213 274.24468 195.84043 274.24468"/>
      <polygon id="ac" data-name="b1" class="ec" points="211.32979 307.60638 203.84043 318.15957 203.84043 328.37234 193.45745 333.64894 186.81915 346.07447 191.58511 349.30851 189.71277 357.47872 176.43617 360.03191 169.28723 361.05319 163.15957 370.24468 159.07447 350.84043 158.05319 339.60638 150.90426 350.84043 149.88298 334.5 156.01064 320.20213 161.11702 301.81915 188.01064 308.96809 195.84043 306.24468 211.32979 307.60638"/>
      <polygon id="ad" data-name="b2" class="ec" points="253.37234 362.24468 236.43617 358.11702 226.81915 344.07447 217.79787 344.07447 209.11702 337.30851 203.84043 328.37234 203.84043 318.15957 211.32979 307.60638 217.62766 300.45745 234.64894 291.09574 265.79787 292.62766 273.96809 313.56383 270.90426 329.39362 280.60638 339.60638 283.67021 354.41489 271.41489 375.35106 268.35106 360.54255 253.37234 362.24468"/>
      <polygon id="ae" data-name="b3" class="ec" points="240.94681 382.84043 224.7766 388.28723 214.56383 385.56383 204.52128 393.39362 175.41489 399.8617 175.41489 394.75532 179.5 380.45745 182.56383 375.35106 176.43617 360.03191 189.71277 357.47872 191.58511 349.30851 186.81915 346.07447 193.45745 333.64894 203.84043 328.37234 209.11702 337.30851 217.79787 344.07447 226.81915 344.07447 236.43617 358.11702 253.37234 362.24468 254.05319 373.47872 240.94681 382.84043"/>
      <polygon id="af" data-name="b4" class="ec" points="175.41489 399.8617 185.62766 418.24468 196.52128 423.69149 208.09574 426.41489 218.30851 426.41489 226.81915 420.96809 228.01064 413.64894 238.90426 409.43368 237.37234 397.30851 240.94681 382.84043 224.7766 388.28723 214.56383 385.56383 204.52128 393.39362 175.41489 399.8617"/>
      <polygon id="ag" data-name="b5" class="ec" points="238.90426 409.43368 237.37234 397.30851 240.94681 382.84043 254.05319 373.47872 253.37234 362.24468 268.35106 360.54255 271.41489 375.35106 281.82803 386.54518 277.37234 396.11702 276.52128 408.03191 266.1383 418.75532 263.07447 411.09574 254.05319 415.01064 238.90426 409.43368"/>
      <polygon id="ah" data-name="b6" class="ec" points="266.1383 418.75532 276.52128 408.03191 277.37234 396.11702 281.82803 386.54518 291.84043 397.30851 291.84043 428.45745 286.86426 432.32217 278.73404 428.20213 274.98936 423.60638 266.1383 418.75532"/>
      <polygon id="ai" data-name="b7" class="ec" points="254.05319 428.45745 259.5 424.37234 266.1383 418.75532 274.98936 423.60638 278.73404 428.20213 286.86426 432.32217 275.5 442.49437 271.41489 444.61896 268.35106 442.49437 254.05319 428.45745"/>
      <polygon id="aj" data-name="b8" class="ec" points="230.56383 426.41489 226.81915 420.96809 228.01064 413.64894 238.90426 409.43368 254.05319 415.01064 263.07447 411.09574 266.1383 418.75532 254.05319 428.45745 230.56383 426.41489"/>
      <polygon id="ak" data-name="b9" class="ec" points="230.56383 426.41489 226.81915 420.96809 218.30851 426.41489 208.09574 426.41489 196.52128 423.69149 185.62766 418.24468 179.5 426.41489 178.47872 434.58511 189.71277 434.58511 196.8617 442.49437 213.20213 446.84043 230.56383 426.41489"/>
    </g>
    <g id="al" data-name="s_charlie">
      <polygon id="am" data-name="c0" class="ej" points="291.84043 397.30851 303.58511 399.8617 317.11702 393.47872 322.55076 407.50645 333.71277 423.35106 325.54255 436.62766 308.18085 434.58511 291.84043 428.45745 291.84043 397.30851"/>
      <polygon id="an" data-name="c1" class="ej" points="317.11702 393.47872 303.58511 399.8617 291.84043 397.30851 281.82803 386.54518 271.41489 375.35106 283.67021 354.41489 280.60638 339.60638 290.81915 339.60638 301.03191 352.11702 309.20213 350.84043 318.1383 352.88298 312.7766 373.56383 318.1383 375.35106 318.1383 385.30851 317.11702 393.47872"/>
      <polygon id="ao" data-name="c2" class="ej" points="322.55076 407.50645 317.11702 393.47872 318.1383 385.30851 318.1383 375.35106 312.7766 373.56383 318.1383 352.88298 333.71277 353.64894 339.58511 360.54255 349.03191 373.30851 333.71277 369.2234 326.56383 380.45745 326.63587 392.1873 322.55076 407.50645"/>
      <polygon id="ap" data-name="c3" class="ej" points="349.03191 373.30851 339.58511 360.54255 351.20213 358.11702 361.03191 358.11702 368.94681 378.15957 378.90426 375.35106 378.90426 393.73404 364.35106 398.84043 350.05319 396.79787 350.05319 387.60638 349.03191 373.30851"/>
      <polygon id="aq" data-name="c4" class="ej" points="339.58511 360.54255 333.71277 353.64894 318.1383 352.88298 325.54255 339.60638 338.30851 338.07447 347.84043 328.37234 360.09574 318.67021 371.5 321.05319 372.69149 333.2234 382.05319 331.43617 389.71277 340.62766 385.11702 357.1383 396.52128 362.75532 378.90426 375.35106 368.94681 378.15957 361.03191 358.11702 351.20213 358.11702 339.58511 360.54255"/>
      <polygon id="ar" data-name="c5" class="ej" points="378.90426 375.35106 378.90426 393.73404 384.7766 408.03191 396.01064 417.2234 414.1383 428.20213 420.9426 420.54255 420.9426 407.52128 427.7469 396.79787 427.7469 389.1383 420.9426 381.47872 420.9426 371.52128 427.7469 361.56383 396.52128 362.75532 378.90426 375.35106"/>
      <polygon id="as" data-name="c6" class="ej" points="396.52128 362.75532 427.7469 361.56383 420.9426 353.90426 427.7469 347.01064 430.98936 334.75532 417.96809 317.1383 404.18085 317.1383 396.52128 306.41489 387.32979 301.81915 378.90426 307.7766 371.5 321.05319 372.69149 333.2234 382.05319 331.43617 389.71277 340.62766 385.11702 357.1383 396.52128 362.75532"/>
      <polygon id="at" data-name="c7" class="ej" points="280.60638 339.60638 290.81915 339.60638 301.03191 352.11702 309.20213 350.84043 318.1383 352.88298 325.54255 339.60638 323.15957 327.35106 313.62766 320.54255 306.3138 311.6884 299.24468 322.5 280.60638 339.60638"/>
      <polygon id="au" data-name="c8" class="ej" points="325.54255 339.60638 338.30851 338.07447 347.84043 328.37234 354.17517 323.35733 347.67021 309.81915 348.57234 297.39362 329.88298 302.58511 312.26596 302.58511 306.3138 311.6884 313.62766 320.54255 323.15957 327.35106 325.54255 339.60638"/>
      <polygon id="av" data-name="c9" class="ej" points="354.17517 323.35733 360.09574 318.67021 371.5 321.05319 378.90426 307.7766 387.32979 301.81915 387.32979 293.39362 384.09574 286.15957 378.90426 279.60638 357.45745 294.92553 348.57234 297.39362 347.67021 309.81915 354.17517 323.35733"/>
    </g>
    <g id="aw" data-name="s_delta">
      <polygon id="ax" data-name="d0" class="eg" points="280.60638 339.60638 270.90426 329.39362 273.96809 313.56383 265.79787 292.62766 288.01064 276.79787 311.5 291.09574 312.26596 302.58511 306.3138 311.6884 299.24468 322.5 280.60638 339.60638"/>
      <polygon id="ay" data-name="d1" class="eg" points="288.01064 276.79787 271.41489 261.01064 244.8617 250.07447 229.92553 248.57791 213.20213 274.24468 234.64894 291.09574 265.79787 292.62766 288.01064 276.79787"/>
      <polygon id="b`" data-name="d2" class="eg" points="306.3138 251.7766 298.1383 263.52128 311.5 291.09574 288.01064 276.79787 271.41489 261.01064 244.8617 250.07447 254.73404 232.71277 274.1383 228.28723 274.47872 246.40489 293.11702 244.45745 306.3138 251.7766"/>
      <polygon id="ba" data-name="d3" class="eg" points="322.1383 237.1383 322.1383 245.90426 306.3138 251.7766 293.11702 244.45745 274.47872 246.40489 274.1383 228.28723 304.43617 228.28723 309.88298 240.88298 322.1383 237.1383"/>
      <polygon id="bb" data-name="d4" class="eg" points="298.1383 263.52128 311.5 261.81915 329.62766 275.7766 348.57234 297.39362 329.88298 302.58511 312.26596 302.58511 311.5 291.09574 298.1383 263.52128"/>
      <polygon id="bc" data-name="d5" class="eg" points="318.88828 267.50778 335.92553 256.20213 336.43617 240.88298 322.1383 237.1383 322.1383 245.90426 306.3138 251.7766 298.1383 263.52128 311.5 261.81915 318.88828 267.50778"/>
      <polygon id="bd" data-name="d6" class="eg" points="335.92553 256.20213 352.94681 269.5 369.45745 269.5 378.90426 279.60638 357.45745 294.92553 348.57234 297.39362 329.62766 275.7766 318.88828 267.50778 335.92553 256.20213"/>
      <polygon id="be" data-name="d7" class="eg" points="352.94681 269.5 358.2234 257.39362 367.5 251.7766 371.5 237.1383 374.2234 233.39362 388.18085 235.7766 396.52128 241.30851 396.52128 253.56383 390.39362 263.52128 383.5 269.5 378.90426 279.60638 369.45745 269.5 352.94681 269.5"/>
      <polygon id="bf" data-name="d8" class="eg" points="352.94681 269.5 335.92553 256.20213 336.43617 240.88298 342.23708 233.39362 354.64894 242.24468 358.2234 257.39362 352.94681 269.5"/>
      <polygon id="bg" data-name="d9" class="eg" points="358.2234 257.39362 367.5 251.7766 371.5 237.1383 374.2234 233.39362 369.11702 225.90426 351.20213 221.81915 342.23708 233.39362 354.64894 242.24468 358.2234 257.39362"/>
    </g>
    <g id="bh" data-name="s_echo">
      <polygon id="bi" data-name="e0" class="ea" points="336.43617 240.88298 322.1383 237.1383 321.62766 230.84043 326.56383 223.8617 332.35106 228.28723 345.58711 229.06851 342.23708 233.39362 336.43617 240.88298"/>
      <polygon id="bj" data-name="e1" class="ea" points="326.56383 223.8617 323.35532 216.03191 333.60738 213.47872 342.39362 207.8617 354.64894 212.96809 351.20213 221.81915 345.58711 229.06851 332.35106 228.28723 326.56383 223.8617"/>
      <polygon id="bk" data-name="e2" class="ea" points="322.1383 237.1383 309.88298 240.88298 304.43617 228.28723 307.67021 217.73404 323.35532 216.03191 326.56383 223.8617 321.62766 230.84043 322.1383 237.1383"/>
      <polygon id="bl" data-name="e3" class="ea" points="323.35532 216.03191 317.28723 209.2234 317.28723 197.64894 329.62766 182.32979 339.84043 197.1383 342.39362 207.8617 333.60738 213.47872 323.35532 216.03191"/>
      <polygon id="bm" data-name="e4" class="ea" points="304.43617 228.28723 287.24468 228.28723 289.28723 216.67021 296.43617 211.30851 296.94681 203.52128 303.84043 199.18085 317.28723 197.64894 317.28723 209.2234 323.35532 216.03191 307.67021 217.73404 304.43617 228.28723"/>
      <polygon id="bn" data-name="e5" class="ea" points="268.8617 194.84043 273.96809 193.05319 273.96809 164.45745 289.28723 157.81915 304.8617 160.88298 310.73404 182.32979 329.62766 182.32979 317.28723 197.64894 303.84043 199.18085 296.94681 203.52128 296.43617 211.30851 289.28723 216.67021 276.01064 213.98936 268.8617 194.84043"/>
      <polygon id="bo" data-name="e6" class="ea" points="287.24468 228.28723 289.28723 216.67021 276.01064 213.98936 268.8617 194.84043 254.56383 194.84043 240.7766 199.18085 228.01064 212.96809 216.52128 213.98936 219.58511 232.37234 229.92553 248.57791 244.8617 250.07447 254.73404 232.71277 274.1383 228.28723 287.24468 228.28723"/>
      <polygon id="bp" data-name="e7" class="ea" points="240.7766 199.18085 227.5 202.24468 217.79787 193.90426 204.35106 185.05319 209.62766 175.69149 220.8617 164.96809 258.5 167.01064 273.96809 164.45745 273.96809 193.05319 268.8617 194.84043 254.56383 194.84043 240.7766 199.18085"/>
      <polygon id="bq" data-name="e8" class="ea" points="216.52128 213.98936 202.47872 213.98936 182.05319 225.2234 165.20213 225.2234 177.45745 201.2234 177.45745 187.94681 195.84043 175.69149 209.62766 175.69149 204.35106 185.05319 217.79787 193.90426 227.5 202.24468 240.7766 199.18085 228.01064 212.96809 216.52128 213.98936"/>
      <polygon id="br" data-name="e9" class="ea" points="165.20213 225.2234 169.79787 240.54255 189.71277 245.90426 182.05319 261.98936 195.84043 274.24468 213.20213 274.24468 229.92553 248.57791 219.58511 232.37234 216.52128 213.98936 202.47872 213.98936 182.05319 225.2234 165.20213 225.2234"/>
    </g>
    <g id="bs" data-name="s_foxtrot">
      <polygon id="bt" data-name="s0" class="ef" points="329.62766 182.32979 347.5 164.45745 363.07447 164.45745 367.58511 175.01064 362.81915 184.37234 370.30851 192.03191 358.23024 192.03191 349.96809 190.5 345.90457 195.28803 339.84043 197.1383 329.62766 182.32979"/>
      <polygon id="bu" data-name="s1" class="ef" points="370.30851 192.03191 378.90426 199.18085 378.90426 210.24468 389.54255 218.46511 389.54255 225.2234 388.0679 235.75731 374.2234 233.39362 369.11702 225.90426 351.20213 221.81915 354.64894 212.96809 362.64894 204.79787 370.30851 192.03191"/>
      <polygon id="bv" data-name="s2" class="ef" points="378.90426 199.18085 394.47872 200.37234 408.7766 209.73404 421.23486 209.73404 417.20213 214.5 414.1383 225.98936 404.94681 236.71277 396.52128 241.30851 388.0679 235.75731 389.54255 225.2234 389.54255 218.46511 378.90426 210.24468 378.90426 199.18085"/>
      <polygon id="bw" data-name="s3" class="ef" points="378.90426 199.18085 394.47872 200.37234 408.7766 209.73404 421.23486 209.73404 425.62766 204.54255 437.11702 200.71277 437.11702 192.03191 428.01064 183.35106 411.67021 182.32979 400.06956 189.98936 390.56383 186.41489 383.07447 193.05319 378.90426 199.18085"/>
      <polygon id="bx" data-name="s4" class="ef" points="411.67021 182.32979 403.54255 171.60638 392.94681 167.69536 380.43617 169.94681 367.58511 175.01064 362.81915 184.37234 370.30851 192.03191 378.90426 199.18085 383.07447 193.05319 390.56383 186.41489 400.06956 189.98936 411.67021 182.32979"/>
      <polygon id="by" data-name="s5" class="ef" points="392.94681 167.69536 380.43617 169.94681 367.58511 175.01064 363.07447 164.45745 367.41489 153.2234 378.90426 138.92553 392.94681 138.92553 398.39362 148.62766 392.94681 157.81915 392.94681 167.69536"/>
      <polygon id="c`" data-name="s6" class="ef" points="403.54255 171.60638 411.67021 182.32979 428.01064 183.35106 429.03191 160.62766 416.28723 151.01064 398.39362 148.62766 392.94681 157.81915 392.94681 167.69536 403.54255 171.60638"/>
      <polygon id="ca" data-name="s7" class="ef" points="370.30851 192.03191 362.64894 204.79787 354.64894 212.96809 342.39362 207.8617 339.84043 197.1383 345.90457 195.28803 349.96809 190.5 358.23024 192.03191 370.30851 192.03191"/>
      <polygon id="cb" data-name="s8" class="ef" points="429.03191 160.62766 450.90426 152.45745 442.47872 141.73404 443.24468 131.7766 428.69149 120.28723 417.58511 127.18085 409.28723 138.92553 392.94681 138.92553 398.39362 148.62766 416.28723 151.01064 429.03191 160.62766"/>
      <polygon id="cc" data-name="s9" class="ef" points="450.90426 152.45745 429.03191 160.62766 428.01064 183.35106 437.11702 192.03191 437.11702 200.71277 450.90426 200.71277 456.26596 190.75532 456.26596 180.03191 447.84043 172.37234 447.84043 163.18085 450.90426 152.45745"/>
    </g>
    <g id="cd" data-name="s_golf">
      <polygon id="ce" data-name="g0" class="dw" points="165.20213 225.2234 146.81915 230.84043 132.01064 218.07447 142.39362 208.03191 154.1383 203.7766 159.07447 194.84043 177.45745 187.94681 177.45745 201.2234 165.20213 225.2234"/>
      <polygon id="cf" data-name="g1" class="dw" points="154.1383 203.7766 159.07447 194.84043 142.90426 186.24468 128.26596 187.24468 124.35106 189.47872 124.35106 202.75532 112.09574 218.07447 132.01064 218.07447 142.39362 208.03191 154.1383 203.7766"/>
      <polygon id="cg" data-name="g2" class="dw" points="159.07447 194.84043 160.94681 180.96809 167.41489 170.41489 159.07447 165.98936 148.35106 157.81915 132.01064 159.8617 126.05319 171.09574 114.1383 181.30851 124.35106 189.47872 128.26596 187.24468 142.90426 186.24468 159.07447 194.84043"/>
      <polygon id="ch" data-name="g3" class="dw" points="126.05319 171.09574 132.01064 159.8617 138.64894 149.47872 129.45745 141.179 103.92553 138.41489 103.92553 162.92553 93.71277 162.92553 102.90426 181.30851 114.1383 181.30851 126.05319 171.09574"/>
      <polygon id="ci" data-name="g4" class="dw" points="138.64894 149.47872 138.64894 140.28723 145.45745 132.45745 144.59234 112.51097 134.56383 116.96809 124.35106 116.96809 124.35106 106.75532 115.15957 116.96809 115.15957 124.11702 103.92553 138.41489 129.45745 141.179 138.64894 149.47872"/>
      <polygon id="cj" data-name="g5" class="dw" points="152.78098 108.87157 157.28723 129.47872 172.8617 142.75532 159.07447 149.47872 148.35106 157.81915 132.01064 159.8617 138.64894 149.47872 138.64894 140.28723 145.45745 132.45745 144.59234 112.51097 152.78098 108.87157"/>
      <polygon id="ck" data-name="g6" class="dw" points="172.8617 142.75532 188.43617 149.47872 192.7766 165.73404 172.8617 164.45745 167.41489 170.41489 159.07447 165.98936 148.35106 157.81915 159.07447 149.47872 172.8617 142.75532"/>
      <polygon id="cl" data-name="g7" class="dw" points="172.8617 142.75532 189.71277 134.07447 184.35106 127.94681 177.45745 106.75532 159.07447 90.41489 152.78098 108.87157 157.28723 129.47872 172.8617 142.75532"/>
      <polygon id="cm" data-name="g8" class="dw" points="192.7766 165.73404 209.62766 175.69149 220.8617 164.96809 205.79787 140.96809 189.71277 134.07447 172.8617 142.75532 188.43617 149.47872 192.7766 165.73404"/>
      <polygon id="cn" data-name="g9" class="dw" points="209.62766 175.69149 195.84043 175.69149 177.45745 187.94681 159.07447 194.84043 160.94681 180.96809 167.41489 170.41489 172.8617 164.45745 192.7766 165.73404 209.62766 175.69149"/>
    </g>
    <g id="co" data-name="s_hotel">
      <polygon id="cp" data-name="h0" class="ee" points="320.94681 165.30851 318.39362 154.88298 322.47872 134.32979 304.8617 134.32979 300.32037 141.179 289.28723 157.81915 304.8617 160.88298 308.12807 172.81232 316.52128 172.81232 320.94681 165.30851"/>
      <polygon id="cq" data-name="h1" class="ee" points="310.73404 182.32979 308.12807 172.81232 316.52128 172.81232 320.94681 165.30851 318.39362 154.88298 327.41489 148.62766 335.07447 150.67021 347.5 164.45745 329.62766 182.32979 310.73404 182.32979"/>
      <polygon id="cr" data-name="h2" class="ee" points="335.07447 150.67021 346.2234 149.64894 349.96809 136.11702 340.47872 126.41489 328.60638 127.43617 326.05319 126.15957 322.47872 134.32979 318.39362 154.88298 327.41489 148.62766 335.07447 150.67021"/>
      <polygon id="cs" data-name="h3" class="ee" points="335.07447 150.67021 347.5 164.45745 363.07447 164.45745 367.41489 153.2234 372.91024 146.38475 358.35106 138.15957 349.96809 136.11702 346.2234 149.64894 335.07447 150.67021"/>
      <polygon id="ct" data-name="h4" class="ee" points="340.47872 126.41489 349.96809 117.60638 353.37234 104.07447 339.84043 97.30851 329.62766 102.67021 323.5 114.41489 326.05319 126.15957 328.60638 127.43617 340.47872 126.41489"/>
      <polygon id="cu" data-name="h5" class="ee" points="353.37234 104.07447 358.39362 99.60638 360.1383 92.39362 370.37234 89.90426 354.64894 87.8617 338.30851 80.71277 329.62766 86.32979 329.62766 102.67021 339.84043 97.30851 353.37234 104.07447"/>
      <polygon id="cv" data-name="h6" class="ee" points="370.37234 89.90426 387.24468 87.69149 396.52128 90.41489 404.8617 86.84043 423.32979 83.52128 412.60638 77.39362 401.11702 63.60638 378.90426 63.60638 373.54255 77.64894 354.64894 87.8617 370.37234 89.90426"/>
      <polygon id="cw" data-name="h7" class="ee" points="358.39362 99.60638 370.37234 103.01064 384.43617 102.84043 392.94681 115.26596 378.90426 124.11702 364.69149 134.32979 358.35106 138.15957 349.96809 136.11702 340.47872 126.41489 349.96809 117.60638 353.37234 104.07447 358.39362 99.60638"/>
      <polygon id="cx" data-name="h8" class="ee" points="392.94681 115.26596 400.06956 116.96809 418.30851 113.32619 430.98936 113.39362 428.69149 120.28723 417.58511 127.18085 409.28723 138.92553 392.94681 138.92553 378.90426 138.92553 372.91024 146.38475 358.35106 138.15957 364.69149 134.32979 378.90426 124.11702 392.94681 115.26596"/>
      <polygon id="cy" data-name="h9" class="ee" points="392.94681 115.26596 384.43617 102.84043 370.37234 103.01064 358.39362 99.60638 360.1383 92.39362 370.37234 89.90426 387.24468 87.69149 396.52128 90.41489 404.8617 86.84043 423.32979 83.52128 423.32979 95.01064 426.39362 104.96809 430.98936 113.39362 418.30851 113.32619 400.06956 116.96809 392.94681 115.26596"/>
    </g>
    <g id="d`" data-name="s_india">
      <polygon id="da" data-name="i0" class="dx" points="304.8617 134.32979 300.32037 141.179 287.24468 125.64894 300.32037 120.28723 308.12807 113.32619 323.5 114.41489 326.05319 126.15957 322.47872 134.32979 304.8617 134.32979"/>
      <polygon id="db" data-name="i1" class="dx" points="308.12807 113.32619 298.64894 93.98936 285.71277 93.98936 276.26596 101.1383 271.41489 116.15349 287.24468 125.64894 300.32037 120.28723 308.12807 113.32619"/>
      <polygon id="dc" data-name="i2" class="dx" points="308.12807 113.32619 298.64894 93.98936 308.12807 91.26596 329.62766 86.32979 329.62766 102.67021 323.5 114.41489 308.12807 113.32619"/>
      <polygon id="dd" data-name="i3" class="dx" points="298.64894 93.98936 285.71277 93.98936 279.75532 82.58511 287.24468 71.69149 302.05319 69.30851 314.1383 77.01064 318.70213 88.83822 298.64894 93.98936"/>
      <polygon id="de" data-name="i4" class="dx" points="279.75532 82.58511 287.24468 71.69149 293.63341 70.66342 293.11702 56.96089 273.45745 56.96089 258.5 68.96809 264.7766 90.41489 276.26596 101.1383 285.71277 93.98936 279.75532 82.58511"/>
      <polygon id="df" data-name="i5" class="dx" points="329.62766 86.32979 338.30851 80.71277 323.5 72.71277 314.1383 77.01064 318.70213 88.83822 329.62766 86.32979"/>
      <polygon id="dg" data-name="i6" class="dx" points="332.18085 77.01064 340.47872 73.56383 348.35106 74.58511 356.35106 68.11702 373.54255 77.64894 354.64894 87.8617 338.30851 80.71277 332.18085 77.01064"/>
      <polygon id="dh" data-name="i7" class="dx" points="356.35106 68.11702 348.52128 59.14217 359.24468 50.3154 378.90426 63.60638 373.54255 77.64894 356.35106 68.11702"/>
      <polygon id="di" data-name="i8" class="dx" points="332.18085 77.01064 323.5 72.71277 318.39362 65.2234 316.99747 55.72936 337.79787 50.3154 359.24468 50.3154 348.52128 59.14217 356.35106 68.11702 348.35106 74.58511 340.47872 73.56383 332.18085 77.01064"/>
      <polygon id="dj" data-name="i9" class="dx" points="314.1383 77.01064 302.05319 69.30851 293.63341 70.66342 293.11702 56.96089 312.26596 56.96089 316.99747 55.72936 318.39362 65.2234 323.5 72.71277 314.1383 77.01064"/>
    </g>
    <g id="dk" data-name="s_juliet">
      <polygon id="dl" data-name="j0" class="eb" points="271.41489 116.15349 267.32979 127.2526 276.06671 134.07447 276.06671 142.24468 270.26596 147.2234 272.43617 154.37234 273.96809 164.45745 289.28723 157.81915 300.32037 141.179 287.24468 125.64894 271.41489 116.15349"/>
      <polygon id="dm" data-name="j1" class="eb" points="273.96809 164.45745 258.5 167.01064 246.76958 166.37405 247.67021 156.03191 245.5 149.26596 255.71277 149.26596 262.8617 146.84043 270.26596 147.2234 272.43617 154.37234 273.96809 164.45745"/>
      <polygon id="dn" data-name="j2" class="eb" points="245.5 149.26596 236.30851 144.28723 233.88298 141.8617 233.88298 131.01064 230.94681 122.96809 242.56383 119.52128 259.03191 121.43617 267.32979 127.2526 276.06671 134.07447 276.06671 142.24468 270.26596 147.2234 262.8617 146.84043 255.71277 149.26596 245.5 149.26596"/>
      <polygon id="do" data-name="j3" class="eb" points="233.88298 141.8617 227.62766 141.8617 218.81915 144.28723 205.79787 140.96809 220.8617 164.96809 246.76958 166.37405 247.67021 156.03191 245.5 149.26596 236.30851 144.28723 233.88298 141.8617"/>
      <polygon id="dp" data-name="j4" class="eb" points="230.94681 122.96809 223.58511 118.88298 212.8617 120.92553 200.43617 118.88298 196.8617 127.43617 189.71277 134.07447 205.79787 140.96809 218.81915 144.28723 227.62766 141.8617 233.88298 141.8617 233.88298 131.01064 230.94681 122.96809"/>
      <polygon id="dq" data-name="j5" class="eb" points="259.03191 121.43617 242.56383 119.52128 239.15957 106.75532 245.5 93.30851 245.5 81.64894 240.7766 68.96809 258.5 68.96809 264.7766 90.41489 276.26596 101.1383 271.41489 116.15349 267.32979 127.2526 259.03191 121.43617"/>
      <polygon id="dr" data-name="j6" class="eb" points="200.43617 118.88298 212.8617 120.92553 223.58511 118.88298 230.94681 122.96809 242.56383 119.52128 239.15957 106.75532 245.5 93.30851 229.69742 86.32979 209.62766 95.7472 204.35106 93.98936 197.88298 104.64894 200.43617 118.88298"/>
      <polygon id="ds" data-name="j7" class="eb" points="209.62766 95.7472 204.35106 93.98936 197.88298 83.52128 202.98936 74.07447 202.98936 68.96809 212.18085 59.64174 232.60638 59.64174 240.7766 68.96809 245.5 81.64894 245.5 93.30851 229.69742 86.32979 209.62766 95.7472"/>
      <polygon id="dt" data-name="j8" class="eb" points="197.88298 104.64894 189.71277 95.7472 179.5 100.19807 177.45745 106.75532 184.35106 127.94681 189.71277 134.07447 196.8617 127.43617 200.43617 118.88298 197.88298 104.64894"/>
      <polygon id="du" data-name="j9" class="eb" points="197.88298 104.64894 189.71277 95.7472 179.5 100.19807 177.45745 106.75532 159.07447 90.41489 182.56383 74.07447 202.98936 74.07447 197.88298 83.52128 204.35106 93.98936 197.88298 104.64894"/>
    </g>
  </g>
</svg>