<?xml version="1.0" encoding="UTF-8"?>
<svg xmlns="http://www.w3.org/2000/svg" viewBox="0 0 227.82623 214.37417">
  <defs>
    <style>
      .cls-1 {
        font-size: 5px;
      }

      .cls-1, .cls-2, .cls-3 {
        font-family: MyriadPro-Regular, Myriad Pro;
      }

      .cls-1, .cls-2, .cls-3, .cls-4 {
        fill: #231f20;
      }

      .cls-5 {
        letter-spacing: .00996em;
      }

      .cls-6 {
        letter-spacing: -.00596em;
      }

      .cls-7 {
        letter-spacing: -.00703em;
      }

      .cls-8 {
        stroke: #000;
      }

      .cls-8, .cls-9, .cls-10, .cls-11, .cls-12, .cls-13, .cls-14, .cls-15, .cls-16 {
        stroke-miterlimit: 10;
      }

      .cls-8, .cls-11, .cls-13, .cls-14, .cls-16 {
        fill: none;
      }

      .cls-9 {
        fill: #47ba80;
      }

      .cls-9, .cls-15 {
        opacity: .4;
        stroke: #231f20;
      }

      .cls-17 {
        letter-spacing: .004em;
      }

      .cls-10 {
        fill: #efaf3d;
        stroke: #ae7029;
      }

      .cls-11 {
        stroke-dasharray: 0 0 11.16089 5.58045;
      }

      .cls-11, .cls-13, .cls-14, .cls-16 {
        stroke: #aa722a;
      }

      .cls-2 {
        font-size: 4.4202px;
      }

      .cls-18 {
        letter-spacing: -.01299em;
      }

      .cls-3 {
        font-size: 4.71686px;
      }

      .cls-19 {
        fill: #2b2b2b;
      }

      .cls-20 {
        fill: #a3a3a3;
      }

      .cls-21 {
        letter-spacing: -.0001em;
      }

      .cls-12 {
        fill: #67bf68;
        stroke: #26af4b;
      }

      .cls-22 {
        fill: #85d4ef;
      }

      .cls-13 {
        stroke-dasharray: 0 0 0 0 12 2 12 6;
      }

      .cls-23 {
        letter-spacing: -.01201em;
      }

      .cls-14 {
        stroke-dasharray: 0 0 0 0 11.16089 1.86015 11.16089 5.58045;
      }

      .cls-15 {
        fill: #d2cd28;
      }
    </style>
  </defs>
  <g id="regions">
    <polygon id="a1" class="cls-9" points="12.32634 108.24585 8.24124 99.9267 6.19868 87.67138 .58166 79.50116 10.79443 59.73521 31.7306 50.90542 43.98592 41.20329 60.83698 35.07563 72.07102 32.0118 97.0923 35.58627 99.13485 57.54372 104.75188 65.96925 118.02847 102.33095 118.02847 127.50116 109.34762 145.37351 113.43273 161.20329 118.02847 189.79904 109.34762 196.94797 68.49656 213.79904 50.11358 198.99053 37.34762 197.96925 22.02847 179.58627 18.96464 167.33095 24.58166 154.05436 23.56039 131.58627 14.87954 120.50116 12.32634 108.24585"/>
    <polygon id="a0" class="cls-15" points="118.02847 189.79904 172.66677 189.79904 187.47528 174.62882 187.47528 159.30968 197.17741 153.69265 223.7306 129.69265 227.30507 114.37351 219.13485 92.41606 222.70932 74.54372 209.94336 64.84159 198.70932 52.58627 178.28379 25.52244 165.51783 32.0118 149.68805 29.60755 113.94336 29.09691 97.0923 35.58627 99.13485 57.54372 104.75188 65.96925 118.02847 102.33095 118.02847 127.50116 109.34762 145.37351 113.43273 161.20329 118.02847 189.79904"/>
  </g>
  <g id="forest">
    <path class="cls-12" d="M58.454,52.33095s-.51587-7.13948,4.891-7.27187,10.00262-2.93144,12.30049,0,6.33406,7.61229,7.37979,8.71868,.48618,6.46809,0,10.29787,3.71375,9.3625,.59251,9.91529-13.30909-2.51104-14.85346-8.12806-3.58693-6.02976-6.65076-6.97233-3.65957-6.55959-3.65957-6.55959Z"/>
    <path class="cls-12" d="M112.66677,61.52244c-6.89362-5.87234-6.9781-4.59574-8.08479-11.48936s-5.36201-7.65957-2.97904-9.95745-.93617-1.78624-2.21277-9.19149,3.34798-3.06383,10.22718-6.38298,11.67468-2.5737,12.05178,0-2.02273,15.14311-3.85297,17.40134-.72295,7.87525,0,10.42844,3.8728,6.12766,0,7.65957-5.14939,1.53191-5.14939,1.53191Z"/>
    <path class="cls-12" d="M132.37298,53.77776c-1.32323-11.91489-3.7298-10.6383-.73928-15.23404s4.27346-4.75614,3.50433-9.14403,2.80533-7.11712,2.80533-7.11712c0,0,8.03636-5.44098,11.16712-2.12184s1.85416,3.31915,3.89671,5.3617,2.80851,4.04255,2.80851,6.48936,1.78723,3.46809,5.3617,6.02128,7.65957,5.37116,3.82979,7.026-2.80851,7.52719-10.46809,7.01655-9.19149-3.57447-11.48936-1.53191,1.14894,6.487-3.12766,6.56265-7.54911-3.32861-7.54911-3.32861Z"/>
    <path class="cls-12" d="M123.96701,118.96925c-4.66194-3.19149-5.4279-2.17021-4.66194-5.10638s6-4.46809,6-4.46809c0,0,4.68193,3.06383,4.89416,4.78723s1.8718,.70213,2.89308,3.38298,3.06383,3.17905,.6383,3.69591-4.47941-.8874-6.77162,.51686-1.77684,3.74639-2.99197,1.93702,0-4.74554,0-4.74554Z"/>
    <path class="cls-12" d="M121.7306,166.84159c-1.78723-1.14894,0-.76596-3.70213-3.06383s-5.77464-1.53191-6.52562-2.80851-.24761-.40581,1.73475-.52206,5.9398,.01142,7.59938-1.00986,3.19149-3.70213,5.23404-4.85106,6.6383-3.82979,7.40426-1.40426,6.12766,7.02128,5.87234,7.65957-4.08511,6.25532-2.68085,8.29787,5.10638,7.14894,4.08511,9.31915,1.14894,7.02128-2.29787,6.6383,3.57447,6.38298-.51064,7.14894-4.37481,1.42553-5.57039-.51064-1.17661-4.85106-.73928-6,.40294-3.82979,.73928-6-.1743-2.93617-1.32323-4.46809-2.56452-.83876-4.09077-2.78108-3.18583-5.13381-4.2071-5.38913l-1.02128-.25532Z"/>
    <path class="cls-12" d="M182.70932,170.03308c-4.25532-3.57447-4.59574-2.7234-4.59574-5.2766s-1.53191-4.76596-2.04255-5.95745-2.38298,.34043-1.53191-2.7234-1.02128-6.46809,1.02128-8.34043,1.3617-2.5076,3.57447-2.5304,4.08511,.53343,5.78723,0,4.08511-1.89513,6.6383-1.89513,4.59574-2.04255,8.17021,0,5.78723,.2158,7.82979,1.89513,2.7234,4.06231,2.7234,6.10487,2.55319,11.57447,0,13.44681-6.6383,6.80851-8.17021,5.2766-5.95745,.34043-7.31915,0-4.08511,2.41315-6.12766,2.56828-5.95745-2.56828-5.95745-2.56828Z"/>
  </g>
  <g id="water">
    <path class="cls-22" d="M121.3501,208.94932c-1.10059,0-2.16016-.6084-2.68604-1.66016-2.75146-5.50488,1.3532-6.00468,4.81121-9.00077,1.86719-1.61914,.01447-6.40548-.20477-6.9045-.27393-.56055-1.08877-2.35162-.98672-2.96784,1.41992-8.5459-1.30366-7.03923-4.25532-10.38298-1.2793-1.4502-4.53859-1.79733-6.29787-2.55319-2.49182-1.07015-3.18508-1.31033-3.18508-5.10638,0-1.3617-.712-2.20288-.72981-2.21277-.68947-.38264-.5891-.93888-1.7283-1.16942-3.4707-.69922-9.93066-2.00195-9.16357-8.13867,.93701-7.49902,7.82823-3.85825,11.62169-3.45786,.7444,.07887,2.37195,.39136,4.22512,.715,2.59176,.45264,5.1322-1.02777,6.02723-3.50185,.21602-.59713,.41433-1.12198,.55858-1.45842,.94124-2.19718,2.86439-3.45274,4.55622-4.3503,.04663-.02474,.04749-.08987,.00155-.11587-1.47744-.83627-3.45699-1.47046-5.38297-.56996-1.02588,.47852-1.78223,1.23047-2.58252,2.02637-1.46582,1.45703-3.91064,3.88867-7.76611,2.13965-.19629,.08105-.5249,.27246-.75537,.40723-.99072,.57715-3.06812,.43962-5.05835-.28011-2.05176-.74121-2.61743-1.70915-3.24438-3.4318-.67041-1.8418-1.229-2.0918-1.72119-2.31152-.58789-.2627-1.81104-.80957-2.33691-2.28027-.56348-1.5752,.06299-3.04688,.87451-4.66992,.53564-1.07129,.78076-1.875,.99756-2.58398,1.14404-3.74658,3.00781-4.48584,7.68311-4.68896,3.37061-.13965,3.73901,1.39163,5.74731,2.31644,.00558,.00257,2.39667-.26735,2.40228-.26477,.95656,.44057,2.08825,.1994,2.79858-.57813,.45217-.49494,.87201-.89614,1.22419-1.23282,.24902-.23779,.57422-.54834,.729-.73389-.02148-.12451-.08008-.36328-.2373-.75684-.36426-.91064-.57812-1.50635-.72754-1.92334-.04102-.11475-.07373-.20898-.10303-.28906-.0625-.06348-.1377-.13672-.229-.22803-.35254-.35254-.87305-.87256-1.67822-1.74512-1.25928-1.36426-1.60498-1.58057-1.93945-1.78955-.77197-.48242-1.49512-.99512-3.16699-2.80615-.66064-.71582-1.24902-.88867-2.13867-1.1499-2.32568-.68213-4.82471-1.8335-5.0376-6.88721-.04785-1.14258-.95361-1.89551-2.86523-3.22754-2.05029-1.4292-5.48242-3.8208-4.21875-8.19824,.89502-3.1001,2.97266-4.55127,4.48975-5.61035,1.46436-1.02295,2.0127-1.40576,2.08447-2.96289,.20215-4.39648,3.06641-5.6084,4.44287-6.19092,.18115-.07666,.41211-.17432,.55811-.24951,.03369-.21191,1.96788-2.86302,1.78917-3.89915-.89511-5.19085-4.50941-4.28137-6.24335-6.10475l-.11495-.0129c-2.43722,1.58291-4.85018,.16693-6.19503-.96024-3.22412-2.70361-6.81299-6.42529-5.93652-11.24609,.34229-1.88184,1.21344-3.21864,2.02051-4.37109,1.27144-1.81555,2.95579-.91604,3.14378-2.32619,.15499-1.16198-.18857-2.78939-.66005-4.37298-.67673-2.27299-1.94104-4.34775-3.71072-5.92657-.69516-.62019-1.46514-1.51017-2.4986-2.82542-3.44824-4.38916-3.32031-5.74072-2.14844-11.40479l.12402-.60107c.79004-3.83203,3.53711-6.34424,5.96094-8.56055,2.00537-1.8335,3.89941-3.56543,4.44775-5.75977,.75781-3.02979,2.34229-4.65771,3.49902-5.84619,1.46615-1.50574,2.4402-2.50601,1.36094-7.92601-.29098-1.46129,.39488-3.02277,1.78062-3.57027,1.79564-.70945,3.69416,.38779,4.06059,2.18377,1.63965,8.04004-.34424,10.87012-2.90283,13.49805-.9707,.99707-1.6123,1.65625-1.97705,3.11572-.98682,3.94775-3.76709,6.48975-6.22021,8.73291-2.00488,1.83301-3.73584,3.41602-4.13281,5.34326l-.12549,.60596c-.42676,2.06299-.70898,3.42529-.60938,4.03516,.0708,.43701,.59473,1.16699,1.6001,2.44678,1.07603,1.36923,1.56532,1.86927,1.76589,2.04817,.00647,.00577,.01158,.00826,.02,.0103,.24433,.05903,.60394,.14796,1.05492,.32874,4.27441,1.71045,4.89268,13.16565,3.646,14.16064-3.15714,2.51976-5.17609,2.23536-5.86523,3.68841-1.53382,3.23404-.21403,7.34129,1.53001,9.19149,.89228,.94659,4.74056-.05129,5.9909-.41021,.27765-.0797,.58162-.1304,.91365-.13961,1.17139-.02588,2.27588,.48389,3.27197,1.53418,.35059,.36963,.72363,.70752,1.10352,1.0542,2.15625,1.97119,4.84033,4.42432,6.05957,11.49414,.97168,5.6377-1.48828,7.49463-4.02295,8.56689-.24072,.10205-.6001,.25391-.71631,.33936,.00977,.01221-.05273,.19336-.07178,.60254-.20752,4.5083-2.87646,6.37256-4.64258,7.60547-1.25195,.87451-1.86719,1.33984-2.16016,2.35547-.02441,.08447-.02588,.12305-.02588,.12354,.14648,.25879,1.2085,.99854,1.91064,1.48828,2.09082,1.45703,5.25049,3.65918,5.42969,7.89746,.02734,.65869,.09961,1.02246,.1499,1.20264,.16162,.05664,.396,.12549,.58203,.18018,1.22314,.35889,3.07129,.90137,4.85791,2.83691,1.25879,1.36328,1.604,1.57959,1.93848,1.78809,.77197,.48291,1.49561,.99609,3.16797,2.80762,.72559,.78564,1.19434,1.25488,1.51221,1.57227,1.01416,1.01416,1.25732,1.39746,1.73682,2.73389,.13379,.37354,1.50271,1.93043,.65088,1.72119-2.74242-.67362-1.26146,2.84751-2.74242,4.26255-.57471,.54932-1.53429,2.43717-2.08556,3.23404-2.6958,3.8916-5.4352,4.5581-7.78335,3.47509-1.69043-.77832-3.44141-1.60156-5.36328-1.49902-1.12549,.04883-1.76172,.11328-2.11963,.16895-.02881,.09277-.05811,.18848-.08545,.27832-.22289,.72981-.55067,1.80325-1.19396,3.15477-.01471,.03091-.00602,.07386,.0215,.09421,1.17378,.86788,2.33814,2.26288,3.25791,4.79106,.04102,.1123,.08008,.21582,.11719,.30957,1.24029-.6825,3.34316-1.58621,5.78774-.41305l.05173-.00258c.2623-.19871,.67909-.61315,.99939-.93202,.9707-.96484,2.30029-2.28613,4.27588-3.20801,4.40771-2.05566,9.64551-.91602,14.00977,3.05273,1.55566,1.41406,1.72559,2.85254,1.59424,3.81055-.30957,2.25977-2.27344,3.24609-4.00635,4.11621-.97656,.49023-2.45264,1.23145-2.7207,1.85742-2.2085,5.15137-6.07227,5.15527-11.92676,5.1377h-1.29395c-1.83984-.0332-3.46582-.16992-4.89844-.32129-1.28141-.13565-3.0272-.31962-3.51572-.11134-.01406,.00599-.02192,.01576-.02825,.02967-.03786,.08316-.21689,.44137-.33005,1.34925-.01807,.14062-.00684,.2002-.00684,.20117,.41895,.50879,3.01025,1.03125,4.40234,1.3125,3.40723,.68652,7.64795,1.54199,8.34814,5.50781,.11572,.65625,.60889,.99121,2.93164,1.98926,2.07617,.8916,4.65967,2.00098,6.83105,4.46289,3.89865,4.4169,4.89289,7.09318,4.12831,13.66566-.19198,1.65033-.21298,3.31101-.05392,4.96484,.23212,2.41348-.37945,5.52492-3.33757,8.08825-3.0201,2.61833-2.82984,3.32555-2.16931,4.65901,.70273,1.41863,.32189,3.22936-1.02926,4.05444-.49652,.3032-1.03926,.44671-1.57243,.44671Z"/>
    <path class="cls-22" d="M124.49656,127.61216s-1.19149,.34043,0,2.7234,3.57447,5.2766,5.2766,4.76596,2.55319-2.04255,4.08511-.85106,1.87234-1.30249,0-2.86401-1.89593-2.75301-2.22456-4.96578-3.22225-3.06383-3.9031-1.87234-3.23404,3.06383-3.23404,3.06383Z"/>
    <path class="cls-22" d="M106.92209,67.77776s-.45527-.38298,1.62343,.51064,2.60375,2.29787,3.36971,4.7234,.49622,1.78723,1.77282,3.70213,3.06383,4.46809,3.06383,4.46809c-.51064,.76596,.6383-3.06383,0-4.08511s-2.04255-2.42553-2.04255-4.85106,.25532-3.48231-1.14894-4.54967-3.31915-1.06735-3.95745-.9397-2.68085,1.02128-2.68085,1.02128Z"/>
    <path class="cls-22" d="M101.68805,53.77776v2.7234s.51064,1.3617,1.19149,0-1.19149-2.7234-1.19149-2.7234Z"/>
    <path class="cls-22" d="M85.45734,44.07563c-.79057-3.06383-2.4927-3.40426-1.81185-7.31915s-.55821-6.12766,.82728-7.65957-1.67834-.12766-2.35919,2.91489-2.21277,3.21277-1.19149,6.95745,1.70213,2.89362,3.23404,5.10638,1.30121,0,1.30121,0Z"/>
    <path class="cls-22" d="M103.90081,121.35223c1.44681-.17021,4.42553-.25532,5.10638,1.19149s1.44681,2.38298,2.29787,3.14894-1.19149,.59574-3.31915-.42553-4.08511-3.91489-4.08511-3.91489Z"/>
  </g>
  <g id="hills">
    <line class="cls-13" x1="56.07102" y1="128.62864" x2="56.07102" y2="210.37351"/>
    <g>
      <line class="cls-16" x1="15.77315" y1="178.03308" x2="21.77315" y2="178.03308"/>
      <line class="cls-11" x1="23.6333" y1="178.03308" x2="37.58442" y2="178.03308"/>
      <path class="cls-14" d="M40.37464,178.03308H109.7306c3.82979,0,7.14336,3.23404,9.31636,4s10.48984,.76596,12.58675,0c2.09689-.76596,14.99051-5.44681,18.56499-7.06384,3.57446-1.617,5.82979-26.58508,5.82979-26.58508v-36.08847"/>
      <polyline class="cls-16" points="156.02848 109.50547 156.02848 105.56501 155.6455 103.54139"/>
    </g>
    <path class="cls-13" d="M155.64549,98.91538v-31.87565s.77201-5.6024-5.91187-5.51729-15.7821,3.65765-17.36065-.00096-4.64238-7.06287-4.30196-12.16925-1.11205-11.25455-1.11205-11.25455"/>
    <path class="cls-13" d="M125.93569,88.58627h61.7098c6.12766,0,5.22399,32.67463,5.22399,32.67463,0,0,.04688,4.81172,.04688,8.32387s3.91902,6.70152,3.91902,6.70152"/>
  </g>
  <g id="urban">
    <rect class="cls-20" x="132.37298" y="85.69265" width="5.91081" height="2.29787"/>
    <rect class="cls-20" x="139.13485" y="88.58627" width=".78723" height="1.61702"/>
    <rect class="cls-20" x="139.13485" y="84.37351" width="2.46809" height="2.46809"/>
    <rect class="cls-20" x="135.13485" y="80.16074" width="2.46809" height="2.46809"/>
    <rect class="cls-20" x="136.3689" y="71.22457" width=".89362" height="6.12766"/>
    <rect class="cls-20" x="139.92209" y="72.58627" width=".44681" height="1.70213"/>
    <rect class="cls-20" x="144.32634" y="71.99053" width="4.78414" height="1.44681"/>
    <rect class="cls-20" x="153.51783" y="77.94797" width="2.12766" height="1.19149"/>
    <rect class="cls-20" x="145.94336" y="86.84159" width="3.65957" height="3.02128"/>
    <rect class="cls-20" x="152.2959" y="84.14511" width="2.28576" height="3.46729"/>
    <rect class="cls-20" x="154.58166" y="81.28255" width="4.7234" height="1.34628"/>
    <rect class="cls-20" x="155.64549" y="73.99093" width=".76596" height="1.13378"/>
    <rect class="cls-20" x="144.53911" y="61.52244" width="3.23404" height="3.23404"/>
    <rect class="cls-20" x="116.49656" y="88.35223" width="2.5504" height="1.51064"/>
    <rect class="cls-20" x="118.3689" y="80.16074" width="2.12766" height="4.21277"/>
    <rect class="cls-20" x="120.11403" y="76.41606" width="3.61656" height="1.53191"/>
    <rect class="cls-20" x="121.26251" y="79.52896" width="1.19149" height="1.75359"/>
    <rect class="cls-20" x="130.87954" y="80.9267" width=".75416" height="2.26578"/>
    <rect class="cls-20" x="128.07102" y="85.87876" width="2.1282" height="3.98411"/>
    <rect class="cls-20" x="128.07102" y="92.07563" width="4.30196" height="1.19149"/>
    <rect class="cls-20" x="143.56039" y="92.67138" width="1.44681" height="2.73294"/>
    <rect class="cls-20" x="148.15613" y="134.03308" width="2.04255" height="1.12766"/>
    <rect class="cls-20" x="153.43878" y="131.82334" width="1.57144" height="1.57144"/>
    <rect class="cls-20" x="156.02847" y="136.33095" width="1.70213" height=".38298"/>
    <rect class="cls-20" x="159.30507" y="139.0118" width="2.12766" height=".98014"/>
    <rect class="cls-20" x="150.73666" y="149.70787" width="1.55925" height="1.55925"/>
    <rect class="cls-20" x="144.28379" y="145.20481" width="1.87234" height=".78991"/>
    <rect class="cls-20" x="142.66677" y="138.24585" width=".89362" height="1.7461"/>
    <rect class="cls-20" x="146.15613" y="140.9267" width="1.61702" height=".51064"/>
    <rect class="cls-20" x="148.7306" y="145.59976" width="2.00606" height="0"/>
    <rect class="cls-20" x="148.7306" y="147.94797" width=".87234" height=".87234"/>
    <rect class="cls-20" x="150.73666" y="143.64556" width="1.55925" height="1.55925"/>
    <rect class="cls-20" x="63.345" y="164.03046" width="1.7473" height="1.7473"/>
    <rect class="cls-20" x="54.53911" y="167.65009" width="1.87234" height="0"/>
    <rect class="cls-20" x="59.30507" y="174.45861" width="1.02128" height="1.02128"/>
    <rect class="cls-20" x="54.53911" y="178.03308" width="3.06383" height=".51064"/>
    <rect class="cls-20" x="51.30507" y="170.46935" width="2.13839" height="2.13839"/>
    <rect class="cls-20" x="64.21865" y="178.54372" width="4.54569" height="2.7234"/>
    <rect class="cls-20" x="57.26251" y="161.52244" width="1.19149" height="2.50802"/>
    <rect class="cls-20" x="68.76434" y="167.6501" width="1.31292" height="1.31292"/>
  </g>
  <g id="population-centers">
    <rect class="cls-19" x="58.454" y="167.6501" width="4.76596" height="4.76596"/>
    <text class="cls-1" transform="translate(63.22 176.03584)"><tspan class="cls-23" x="0" y="0">A</tspan><tspan x="3" y="0">delaide</tspan></text>
    <circle class="cls-4" cx="144.32634" cy="79.52896" r="4.40426"/>
    <text class="cls-1" transform="translate(148.7306 86.56748)"><tspan class="cls-5" x="0" y="0">K</tspan><tspan x="2.75977" y="0">ings</tspan><tspan class="cls-6" x="11.47998" y="0">t</tspan><tspan class="cls-7" x="13.10498" y="0">o</tspan><tspan class="cls-21" x="15.81494" y="0">wn</tspan></text>
    <rect class="cls-19" x="149.11048" y="137.60897" width="4.76596" height="4.76596"/>
    <text class="cls-1" transform="translate(153.87648 145.99471)"><tspan class="cls-17" x="0" y="0">B</tspan><tspan x="2.72998" y="0">etha</tspan><tspan class="cls-18" x="12.07471" y="0">n</tspan><tspan x="14.78467" y="0">y</tspan></text>
  </g>
  <g id="highways">
    <path class="cls-10" d="M224.08181,150.40652c-6.32812-.50586-11.93164-5.48145-14.62402-7.87305-.31006-.27539-.57715-.5127-.79736-.69922-1.53809-1.12988-11.98584-2.15918-18.31592-1.14844-5.75879,.92285-11.3374-5.82031-15.02637-10.28223-.92969-1.12402-2.08691-2.52295-2.48486-2.79443-1.34082-.89453-3.06396-3.63965-6.9668-10.16211-2.90137-4.84912-6.19043-10.34521-8.14551-12.30078-2.77588-2.77539-6.3418-3.37549-12.25-4.37061-1.59473-.26855-3.40186-.57275-5.35645-.95264-8.49805-1.65332-18.45605,2.13428-18.55566,2.17285l-1.44482-3.72998c.44971-.17383,11.11963-4.24316,20.76416-2.36963,1.90479,.37061,3.68555,.67041,5.25684,.93506,6.23193,1.04932,10.73438,1.80762,14.41406,5.48682,2.30566,2.30518,5.58154,7.78027,8.75,13.0752,2.07227,3.46338,4.91064,8.20703,5.78369,8.90918,.80566,.53564,1.69238,1.58691,3.31787,3.55225,2.72852,3.2998,7.8125,9.42188,11.31201,8.88184,6.05957-.96973,18.62988-.41406,21.5332,2.0459,.23926,.20215,.53076,.46094,.86816,.75977,2.36719,2.10254,7.29395,6.47754,12.28613,6.87793l-.31836,3.98633Z"/>
    <path class="cls-10" d="M5.70941,145.20481l-.55371-3.96094c.21973-.03125,22.0625-3.10938,29.66113-6.15234,3.0332-1.21533,5.55762-3.15039,7.99854-5.02197,3.60107-2.76025,7.33691-5.62891,12.2207-5.43945,3.54443,.12256,6.4624-1.00928,10.16211-2.44824,3.08545-1.19922,6.58203-2.55908,11.10645-3.39209,9.48926-1.74805,25.99561-8.0498,27.75488-9.61133,.5918-.69678,1.73047-1.25684,3.61719-2.18555,4.29053-2.11084,11.47119-5.64453,12.46045-12.07275,.57471-3.73828,1.73096-7.68652,2.84863-11.50488,1.82666-6.24023,3.71582-12.69287,2.55713-17.03711-1.92285-7.20898-3.97705-17.11035-2.84375-23.34131,.25195-1.38672,.52441-4.35059,.83984-7.78271,1.30811-14.22998,2.67627-26.26074,6.1875-29.35889l2.64648,2.99902c-2.60596,2.29932-4.12207,18.79736-4.85059,26.72607-.3374,3.67139-.604,6.57129-.8877,8.13232-.78076,4.29346,.2041,11.9624,2.77344,21.59473,1.44629,5.42529-.51123,12.1123-2.5835,19.19189-1.08154,3.69336-2.19922,7.5127-2.73438,10.98926-1.30615,8.48828-9.98486,12.75928-14.64746,15.05371-.9707,.47754-2.17871,1.07178-2.45996,1.31982-2.19141,2.56201-21.27979,9.22363-29.95361,10.82129-4.15186,.76514-7.31885,1.99609-10.38135,3.18701-3.80029,1.47754-7.3877,2.87549-11.75439,2.7168-3.47314-.11963-6.32666,2.07324-9.64453,4.61719-2.53174,1.94092-5.40137,4.14062-8.94482,5.56006-8.04834,3.22363-29.67773,6.27246-30.59473,6.40039Z"/>
  </g>
  <g id="Layer_8" data-name="Layer 8">
    <g id="bf_infantry">
      <rect class="cls-8" x="32.6027" y="62.20311" width="28.69425" height="16.11595"/>
      <line class="cls-8" x1="32.6027" y1="78.31906" x2="61.29696" y2="62.20311"/>
      <line class="cls-8" x1="61.29696" y1="78.31906" x2="32.6027" y2="62.20311"/>
      <g>
        <text id="fandm" class="cls-3" transform="translate(45.65482 61.10405)"><tspan x="0" y="0">ø</tspan></text>
        <text id="fireteam" class="cls-3" transform="translate(45.32523 61.28374)"><tspan x="0" y="0">Ø</tspan></text>
        <text id="patrol" class="cls-3" transform="translate(46.28471 61.48637)"><tspan x="0" y="0">•</tspan></text>
        <text id="section" class="cls-3" transform="translate(45.61967 61.48589)"><tspan x="0" y="0">••</tspan></text>
        <text id="platoon" class="cls-3" transform="translate(44.95512 61.48637)"><tspan x="0" y="0">•••</tspan></text>
        <text id="company" class="cls-3" transform="translate(46.38676 61.28374)"><tspan x="0" y="0">I</tspan></text>
        <text id="battalion" class="cls-3" transform="translate(45.82279 61.48637)"><tspan x="0" y="0">II</tspan></text>
        <text id="regiment" class="cls-3" transform="translate(45.25883 61.48637)"><tspan x="0" y="0">III</tspan></text>
        <text id="brigade" class="cls-3" transform="translate(45.60307 61.48686)"><tspan x="0" y="0">X</tspan></text>
      </g>
    </g>
    <g id="bf_helicopter">
      <rect class="cls-8" x="24.2848" y="86.52931" width="28.69425" height="16.11595"/>
      <g>
        <polygon class="cls-8" points="38.63193 93.63703 30.31403 91.11028 30.31403 96.16378 38.63193 93.63703"/>
        <polygon class="cls-8" points="38.63193 93.63703 46.94983 91.11028 46.94983 96.16377 38.63193 93.63703"/>
        <g>
          <line class="cls-8" x1="38.63194" y1="96.28084" x2="38.63194" y2="91.44179"/>
          <polygon points="40.72619 92.05455 38.63194 88.42778 36.53767 92.05455 40.72619 92.05455"/>
        </g>
        <text class="cls-3" transform="translate(37.18863 100.31603)"><tspan x="0" y="0">A</tspan></text>
      </g>
      <g>
        <text id="fandm-2" data-name="fandm" class="cls-3" transform="translate(37.33706 85.43029)"><tspan x="0" y="0">ø</tspan></text>
        <text id="fireteam-2" data-name="fireteam" class="cls-3" transform="translate(37.00699 85.60998)"><tspan x="0" y="0">Ø</tspan></text>
        <text id="patrol-2" data-name="patrol" class="cls-3" transform="translate(37.96695 85.81262)"><tspan x="0" y="0">•</tspan></text>
        <text id="section-2" data-name="section" class="cls-3" transform="translate(37.30191 85.81213)"><tspan x="0" y="0">••</tspan></text>
        <text id="platoon-2" data-name="platoon" class="cls-3" transform="translate(36.63687 85.81262)"><tspan x="0" y="0">•••</tspan></text>
        <text id="company-2" data-name="company" class="cls-3" transform="translate(38.06851 85.60998)"><tspan x="0" y="0">I</tspan></text>
        <text id="battalion-2" data-name="battalion" class="cls-3" transform="translate(37.50455 85.81262)"><tspan x="0" y="0">II</tspan></text>
        <text id="regiment-2" data-name="regiment" class="cls-3" transform="translate(36.94107 85.81262)"><tspan x="0" y="0">III</tspan></text>
        <text id="brigade-2" data-name="brigade" class="cls-3" transform="translate(37.28531 85.8131)"><tspan x="0" y="0">X</tspan></text>
      </g>
    </g>
    <g id="bf_armor">
      <rect class="cls-8" x="59.30507" y="95.15847" width="28.69425" height="16.11595"/>
      <rect class="cls-8" x="63.71667" y="99.45612" width="19.87104" height="7.52064" rx="3.76032" ry="3.76032"/>
      <g>
        <text id="fandm-3" data-name="fandm" class="cls-3" transform="translate(72.35712 94.01603)"><tspan x="0" y="0">ø</tspan></text>
        <text id="fireteam-3" data-name="fireteam" class="cls-3" transform="translate(72.02753 94.19571)"><tspan x="0" y="0">Ø</tspan></text>
        <text id="patrol-3" data-name="patrol" class="cls-3" transform="translate(72.987 94.39835)"><tspan x="0" y="0">•</tspan></text>
        <text id="section-3" data-name="section" class="cls-3" transform="translate(72.32196 94.39786)"><tspan x="0" y="0">••</tspan></text>
        <text id="platoon-3" data-name="platoon" class="cls-3" transform="translate(71.65741 94.39835)"><tspan x="0" y="0">•••</tspan></text>
        <text id="company-3" data-name="company" class="cls-3" transform="translate(73.08905 94.19571)"><tspan x="0" y="0">I</tspan></text>
        <text id="battalion-3" data-name="battalion" class="cls-3" transform="translate(72.52509 94.39835)"><tspan x="0" y="0">II</tspan></text>
        <text id="regiment-3" data-name="regiment" class="cls-3" transform="translate(71.96112 94.39835)"><tspan x="0" y="0">III</tspan></text>
        <text id="brigade-3" data-name="brigade" class="cls-3" transform="translate(72.30536 94.39884)"><tspan x="0" y="0">X</tspan></text>
      </g>
    </g>
    <g id="of_infantry">
      <rect class="cls-8" x="180.31748" y="83.48292" width="17.21818" height="17.21818" transform="translate(-9.78357 160.56439) rotate(-45)"/>
      <line class="cls-8" x1="182.83903" y1="98.17956" x2="195.01412" y2="86.00446"/>
      <line class="cls-8" x1="195.01412" y1="98.17956" x2="182.83903" y2="86.00446"/>
      <g>
        <text id="fandm-4" data-name="fandm" class="cls-2" transform="translate(187.71327 78.44572)"><tspan x="0" y="0">ø</tspan></text>
        <text id="fireteam-4" data-name="fireteam" class="cls-2" transform="translate(187.4037 78.61369)"><tspan x="0" y="0">Ø</tspan></text>
        <text id="patrol-4" data-name="patrol" class="cls-2" transform="translate(188.3036 78.80411)"><tspan x="0" y="0">•</tspan></text>
        <text id="section-4" data-name="section" class="cls-2" transform="translate(187.68007 78.80411)"><tspan x="0" y="0">••</tspan></text>
        <text id="platoon-4" data-name="platoon" class="cls-2" transform="translate(187.05702 78.80509)"><tspan x="0" y="0">•••</tspan></text>
        <text id="company-4" data-name="company" class="cls-2" transform="translate(188.39833 78.61466)"><tspan x="0" y="0">I</tspan></text>
        <text id="battalion-4" data-name="battalion" class="cls-2" transform="translate(187.87001 78.80411)"><tspan x="0" y="0">II</tspan></text>
        <text id="regiment-4" data-name="regiment" class="cls-2" transform="translate(187.3412 78.80411)"><tspan x="0" y="0">III</tspan></text>
        <text id="brigade-4" data-name="brigade" class="cls-2" transform="translate(187.66444 78.80411)"><tspan x="0" y="0">X</tspan></text>
      </g>
    </g>
    <g id="of_armor">
      <rect class="cls-8" x="167.678" y="112.65221" width="17.21818" height="17.21818" transform="translate(-34.11139 160.17041) rotate(-45)"/>
      <g>
        <text id="fandm-5" data-name="fandm" class="cls-2" transform="translate(175.07329 107.61501)"><tspan x="0" y="0">ø</tspan></text>
        <text id="fireteam-5" data-name="fireteam" class="cls-2" transform="translate(174.76469 107.78298)"><tspan x="0" y="0">Ø</tspan></text>
        <text id="patrol-5" data-name="patrol" class="cls-2" transform="translate(175.6646 107.9734)"><tspan x="0" y="0">•</tspan></text>
        <text id="section-5" data-name="section" class="cls-2" transform="translate(175.04009 107.97438)"><tspan x="0" y="0">••</tspan></text>
        <text id="platoon-5" data-name="platoon" class="cls-2" transform="translate(174.41704 107.97438)"><tspan x="0" y="0">•••</tspan></text>
        <text id="company-5" data-name="company" class="cls-2" transform="translate(175.75835 107.78395)"><tspan x="0" y="0">I</tspan></text>
        <text id="battalion-5" data-name="battalion" class="cls-2" transform="translate(175.23003 107.9734)"><tspan x="0" y="0">II</tspan></text>
        <text id="regiment-5" data-name="regiment" class="cls-2" transform="translate(174.70219 107.9734)"><tspan x="0" y="0">III</tspan></text>
        <text id="brigade-5" data-name="brigade" class="cls-2" transform="translate(175.02446 107.9734)"><tspan x="0" y="0">X</tspan></text>
      </g>
      <rect class="cls-8" x="168.89208" y="118.3145" width="14.79003" height="5.8936" rx="2.72829" ry="2.72829"/>
    </g>
    <g id="of_heliopter">
      <rect class="cls-8" x="167.67798" y="57.20412" width="17.21818" height="17.21818" transform="translate(5.09632 143.93003) rotate(-45)"/>
      <g>
        <polygon class="cls-8" points="176.28707 65.98563 168.49233 63.61781 168.49233 68.35346 176.28707 65.98563"/>
        <polygon class="cls-8" points="176.28707 65.98563 184.08182 63.6178 184.08182 68.35346 176.28707 65.98563"/>
        <g>
          <line class="cls-8" x1="176.28709" y1="68.46315" x2="176.28709" y2="63.83098"/>
          <polygon points="178.1819 64.38539 176.28709 61.10402 174.39228 64.38539 178.1819 64.38539"/>
        </g>
      </g>
      <g>
        <text id="fandm-6" data-name="fandm" class="cls-2" transform="translate(175.07375 52.16692)"><tspan x="0" y="0">ø</tspan></text>
        <text id="fireteam-6" data-name="fireteam" class="cls-2" transform="translate(174.76418 52.33489)"><tspan x="0" y="0">Ø</tspan></text>
        <text id="patrol-6" data-name="patrol" class="cls-2" transform="translate(175.66408 52.52532)"><tspan x="0" y="0">•</tspan></text>
        <text id="section-6" data-name="section" class="cls-2" transform="translate(175.04054 52.5263)"><tspan x="0" y="0">••</tspan></text>
        <text id="platoon-6" data-name="platoon" class="cls-2" transform="translate(174.4175 52.5263)"><tspan x="0" y="0">•••</tspan></text>
        <text id="company-6" data-name="company" class="cls-2" transform="translate(175.7588 52.33587)"><tspan x="0" y="0">I</tspan></text>
        <text id="battalion-6" data-name="battalion" class="cls-2" transform="translate(175.23048 52.52532)"><tspan x="0" y="0">II</tspan></text>
        <text id="regiment-6" data-name="regiment" class="cls-2" transform="translate(174.70265 52.52532)"><tspan x="0" y="0">III</tspan></text>
        <text id="brigade-6" data-name="brigade" class="cls-2" transform="translate(175.02492 52.52532)"><tspan x="0" y="0">X</tspan></text>
      </g>
    </g>
  </g>
</svg>